<?xml version="1.0" encoding="UTF-8" standalone="no"?>
<svg
   version="1.0"
   width="481.000000pt"
   height="481.000000pt"
   viewBox="0 0 481.000000 481.000000"
   preserveAspectRatio="xMidYMid meet"
   id="svg30"
   sodipodi:docname="brain-icon-small.svg"
   inkscape:version="1.2.2 (1:1.2.2+202212051550+b0a8486541)"
   xmlns:inkscape="http://www.inkscape.org/namespaces/inkscape"
   xmlns:sodipodi="http://sodipodi.sourceforge.net/DTD/sodipodi-0.dtd"
   xmlns="http://www.w3.org/2000/svg"
   xmlns:svg="http://www.w3.org/2000/svg">
  <defs
     id="defs34" />
  <sodipodi:namedview
     id="namedview32"
     pagecolor="#ffffff"
     bordercolor="#666666"
     borderopacity="1.0"
     inkscape:showpageshadow="2"
     inkscape:pageopacity="0.0"
     inkscape:pagecheckerboard="0"
     inkscape:deskcolor="#d1d1d1"
     inkscape:document-units="pt"
     showgrid="false"
     inkscape:zoom="0.36798337"
     inkscape:cx="169.84463"
     inkscape:cy="322.02542"
     inkscape:window-width="1920"
     inkscape:window-height="1136"
     inkscape:window-x="1200"
     inkscape:window-y="323"
     inkscape:window-maximized="1"
     inkscape:current-layer="svg30" />
  <g
     transform="translate(0.000000,481.000000) scale(0.100000,-0.100000)"
     fill="#000000"
     stroke="none"
     id="g28">
    <path
       id="path2"
       d="M 2430.498 4326.2061 C 2419.707 4325.8096 2409.1289 4324.1309 2399.0039 4321.0059 C 2270.004 4280.0059 2233.0011 4111.996 2336.001 4030.9961 C 2408.0009 3974.9961 2492.0059 3979.004 2556.0059 4044.0039 C 2602.0058 4089.0039 2617.001 4135.0001 2606.001 4195 C 2592.001 4268.4999 2506.0351 4328.9814 2430.498 4326.2061 z M 1525.0049 4100.0049 C 1509.0049 4100.0049 1477.0039 4091.0058 1454.0039 4081.0059 C 1399.004 4056.0059 1366.9971 4009.9951 1361.9971 3944.9951 C 1348.9971 3785.9953 1538.005 3702.9962 1645.0049 3820.9961 C 1664.0049 3841.9961 1682.0059 3870.9951 1686.0059 3884.9951 C 1697.0058 3927.9951 1684.0049 3996 1660.0049 4030 C 1634.0049 4067 1570.0048 4100.0049 1525.0049 4100.0049 z M 3318.999 4045.1318 C 3306.999 4044.5068 3295.999 4043.001 3288.999 4041.001 C 3244.9991 4027.001 3214.997 4002.0058 3191.9971 3961.0059 C 3129.9971 3852.006 3209.9952 3715.9961 3334.9951 3715.9961 C 3540.9949 3715.9961 3560.0047 4018.0039 3355.0049 4044.0039 C 3344.0049 4045.5039 3330.999 4045.7568 3318.999 4045.1318 z M 816.32813 3482.5293 C 807.95704 3482.041 799.50097 3480.874 791.00098 3478.999 C 749.00102 3469.999 712.00192 3443.0039 682.00195 3399.0039 C 651.00198 3354.004 654.00004 3269.996 690 3220.9961 C 715.99997 3183.9961 780.00005 3149.9951 825 3149.9951 C 869.99996 3149.9951 934.00003 3183.9961 960 3220.9961 C 995.99996 3269.996 998.99802 3354.004 967.99805 3399.0039 C 929.49809 3455.8788 874.92572 3485.9473 816.32813 3482.5293 z M 2418.999 3393.9941 C 2415.999 3396.9941 2399.9931 3356.0019 2382.9932 3302.002 C 2364.9932 3249.002 2313.999 3091.0028 2268.999 2953.0029 L 2186.9971 2699.9951 L 1811.001 2698.0029 L 1435.0049 2695 L 1729.9951 2481.001 C 1891.995 2364.0011 2028.9981 2264 2032.998 2260 C 2037.998 2256 1992.0009 2097.994 1931.001 1908.9941 C 1870.001 1719.9943 1821.002 1562.0029 1822.002 1558.0029 C 1824.002 1553.0029 1959.0021 1646.0001 2122.002 1765 L 2418.0029 1979.9951 L 2715 1765 C 2878.9998 1646.0001 3013.9961 1550.9932 3015.9961 1552.9932 C 3017.9961 1554.9932 2969.9999 1709.0012 2910 1896.001 C 2850.0001 2082.0008 2800.0049 2240.0068 2800.0049 2247.0068 C 2800.0049 2253.0068 2932.9953 2354.007 3094.9951 2472.0068 C 3256.995 2589.0067 3389 2687.9971 3390 2691.9971 C 3390 2695.9971 3223.0027 2701.002 3018.0029 2702.002 L 2647.002 2705.0049 L 2535 3047.002 C 2474.0001 3235.0018 2421.999 3391.9941 2418.999 3393.9941 z M 3998.6279 3369.1211 C 3972.003 3368.9961 3944.4941 3364.4961 3923.9941 3355.9961 C 3842.9942 3319.9961 3808.9971 3213.9999 3851.9971 3130 C 3883.997 3068.0001 3937.003 3038.0029 4008.0029 3043.0029 C 4178.0028 3055.0029 4221.0028 3275.9962 4068.0029 3355.9961 C 4051.0029 3364.9961 4025.2529 3369.2461 3998.6279 3369.1211 z M 574.99512 2578.0029 C 563.99513 2578.0029 540.99998 2573.0019 525 2567.002 C 445.00008 2536.002 405.00196 2475.996 412.00195 2395.9961 C 417.00195 2329.9962 447.9942 2284.0039 503.99414 2259.0039 C 555.99409 2236.0039 593.99615 2236.0039 645.99609 2259.0039 C 729.99601 2297.0039 766.99995 2408.0069 720 2487.0068 C 689.00003 2540.0068 627.99506 2578.0029 574.99512 2578.0029 z M 4210.0049 2459.9951 C 4196.0049 2459.9951 4166.999 2450.9961 4143.999 2440.9961 C 4034.9991 2390.9961 4010.004 2257.9989 4094.0039 2173.999 C 4161.0038 2106.9991 4259.0059 2106.9991 4326.0059 2173.999 C 4388.0058 2235.999 4393.0029 2325.0001 4338.0029 2395 C 4314.003 2426 4247.0048 2459.9951 4210.0049 2459.9951 z M 791.49902 1668.7451 C 774.49904 1667.7451 758.00388 1662.0058 734.00391 1651.0059 C 591.00405 1586.0059 608.00503 1381.0048 760.00488 1340.0049 C 875.00477 1309.0049 984.9951 1412.0021 964.99512 1532.002 C 955.99513 1584.0019 902.99702 1642.9932 851.99707 1657.9932 C 825.9971 1665.9932 808.49901 1669.7451 791.49902 1668.7451 z M 3908.2031 1588.1494 C 3883.1543 1588.2549 3856.9951 1581.4932 3829.9951 1567.9932 C 3754.9952 1528.9932 3722.002 1458.9989 3742.002 1378.999 C 3775.0019 1250.9992 3934.9991 1212.0011 4023.999 1311.001 C 4084.999 1377.0009 4084.0029 1462.9952 4023.0029 1529.9951 C 3988.628 1568.7451 3949.9511 1587.9736 3908.2031 1588.1494 z M 1450.2246 1019.2187 C 1430.8809 1017.8125 1412 1013.5059 1395 1006.0059 C 1357 989.00588 1335.0049 965.00191 1315.0049 917.00195 C 1294.0049 867.002 1296.003 830.99507 1323.0029 779.99512 C 1378.0029 676.99522 1518.003 660.99911 1593.0029 748.99902 C 1645.0029 810.99896 1646.9941 894.00593 1598.9941 961.00586 C 1570.4942 1001.5058 1508.2558 1023.4375 1450.2246 1019.2187 z M 3216.0059 964.11133 C 3196.6238 964.9646 3176.6894 962.12499 3157.002 955 C 3016.0021 905.00005 3000.005 721.9931 3130.0049 652.99316 C 3181.0048 625.99319 3216.9971 623.99514 3266.9971 644.99512 C 3335.997 673.99509 3370.9971 723.99909 3371.9971 793.99902 C 3373.6221 887.43643 3299.9948 960.41382 3216.0059 964.11133 z M 2406.123 767.74902 C 2387.2481 768.99902 2367.999 766.0039 2343.999 759.00391 C 2325.999 754.00391 2295.9971 732.00096 2276.9971 711.00098 C 2213.9971 642.00105 2215.004 553.00384 2279.0039 489.00391 C 2350.0038 418.00398 2448.001 415.99421 2516.001 483.99414 C 2599.0009 566.99406 2573.0058 702.00591 2466.0059 751.00586 C 2443.5059 761.00585 2424.998 766.49902 2406.123 767.74902 z " />
  </g>
</svg>
